# xmcd
#
# Track frame offsets: 
#        150
#        13186
#        27496
#        36639
#        43004
#        54208
#        67561
#        76690
#        87007
#        95112
#        101230
#        112093
#        120835
#        131381
#        142617
#        152005
#        160974
#        171688
#        180772
#        192239
#        200669
#        209479
#        220385
#        227939
#
# Disc length: 3191 seconds
#
# Revision: 0
# Processed by: cddbd v1.5.2PL0 Copyright (c) Steve Scherf et al.
# Submitted via: ExactAudioCopy v0.95b4
#
DISCID=4a0c7518
DTITLE=Hank Williams Sr. - Rare Demos:First to Last
DYEAR=1990
DGENRE=Country
TTITLE0=Won't You Sometimes Think of Me
TTITLE1=Why Should I Cry
TTITLE2=Calling You
TTITLE3=You Broke Your Own Heart
TTITLE4=Pan American
TTITLE5=Mother Is Gone
TTITLE6=I Watched My Dream World Crumble Like Clay
TTITLE7=In My Dreams You Still Belong to Me
TTITLE8=Wealth Won't Save Your Soul
TTITLE9=I Told a Lie to My Heart
TTITLE10=Singing Waterfall
TTITLE11=I'm Going Home
TTITLE12=Jambalaya
TTITLE13=Heaven Holds All My Treasures
TTITLE14=You Better Keep it on Your Mind
TTITLE15=Lost on the River
TTITLE16=YOur Cheatin' Heart
TTITLE17=A House of Gold
TTITLE18=Honky Tonk Blues
TTITLE19=Help Me Understand
TTITLE20='Neath A Cold Gray Tomb of Stone
TTITLE21=There's Nothing As Sweet As My Baby
TTITLE22=Fool About You
TTITLE23=The Log Train
EXTD=
EXTT0=
EXTT1=
EXTT2=
EXTT3=
EXTT4=
EXTT5=
EXTT6=
EXTT7=
EXTT8=
EXTT9=
EXTT10=
EXTT11=
EXTT12=
EXTT13=
EXTT14=
EXTT15=
EXTT16=
EXTT17=
EXTT18=
EXTT19=
EXTT20=
EXTT21=
EXTT22=
EXTT23=
PLAYORDER=
